# xmcd
#
# Track frame offsets: 
#        150
#        12239
#        26046
#        34700
#        45993
#        57883
#        70615
#        82951
#        94843
#        108231
#        121368
#        133728
#        144385
#        158395
#        169824
#        180746
#        193663
#        206949
#        218719
#        231488
#        244764
#        256880
#        269907
#        285843
#        300543
#
# Disc length: 4185 seconds
#
# Revision: 0
# Processed by: cddbd v1.5.2PL0 Copyright (c) Steve Scherf et al.
# Submitted via: ExactAudioCopyFreeDBPlugin 1.0
#
DISCID=5d105719
DTITLE=B.B. King - Everyday I HaveThe Blues: The Best Of B.B. King CD 
DTITLE=2, 2013
DYEAR=1900
DGENRE=Blues
TTITLE0=Ruby Lee
TTITLE1=I Want To Get Married
TTITLE2=A New Way Of Driving
TTITLE3=Pray For You
TTITLE4=She`s A Mean Woman
TTITLE5=Boogie Woogie Woman
TTITLE6=I Gotta Find My Baby
TTITLE7=You Didn`t Want Me
TTITLE8=Woke Up This Morning
TTITLE9=Blind Love
TTITLE10=The Woman I Love
TTITLE11=Talkin' The Blues
TTITLE12=Boogie Rock
TTITLE13=Early Every Morning
TTITLE14=You Don't Know
TTITLE15=Bad Luck
TTITLE16=Crying Won't Help You
TTITLE17=Please Accept My Love
TTITLE18=Why Do Things Happen To Me
TTITLE19=Sweet Thing
TTITLE20=We Can't Make It
TTITLE21=Please Set The Date
TTITLE22=I Can't Explain
TTITLE23=Downhearted
TTITLE24=Night Long
EXTD=
EXTT0=
EXTT1=
EXTT2=
EXTT3=
EXTT4=
EXTT5=
EXTT6=
EXTT7=
EXTT8=
EXTT9=
EXTT10=
EXTT11=
EXTT12=
EXTT13=
EXTT14=
EXTT15=
EXTT16=
EXTT17=
EXTT18=
EXTT19=
EXTT20=
EXTT21=
EXTT22=
EXTT23=
EXTT24=
PLAYORDER=
